<svg version="1.1" xmlns="http://www.w3.org/2000/svg" xmlns:xlink="http://www.w3.org/1999/xlink" width="512.000000pt" height="512.000000pt" viewBox="0,0,256,256"><g fill="#ffffff" fill-rule="nonzero" stroke="none" stroke-width="1" stroke-linecap="butt" stroke-linejoin="miter" stroke-miterlimit="10" stroke-dasharray="" stroke-dashoffset="0" font-family="none" font-weight="none" font-size="none" text-anchor="none" style="mix-blend-mode: normal"><g transform="scale(0.5,0.5)"><g transform="translate(0,512) scale(0.1,-0.1)"><path d="M380,4750v-370h2180h2180v370v370h-2180h-2180z"></path><path d="M627,4293c-4,-3 -7,-282 -7,-620v-613h1895h1895v620v620h-1888c-1039,0 -1892,-3 -1895,-7zM1280,3885v-165h-165h-165v165v165h165h165zM1700,3885v-165h-165h-165v165v165h165h165zM2520,3885v-165h-165h-165v165v165h165h165zM2930,3885v-165h-165h-165v165v165h165h165zM3670,3885v-165h-165h-165v165v165h165h165zM4080,3885v-165h-165h-165v165v165h165h165zM1280,3475v-165h-165h-165v158c0,87 3,162 7,165c3,4 78,7 165,7h158zM1698,3473l2,-163h-165h-165v165v165l163,-2l162,-3zM2520,3475v-165h-165h-165v165v165h165h165zM2930,3475v-165h-165h-165v165v165h165h165zM3670,3475v-165h-165h-165v158c0,87 3,162 7,165c3,4 78,7 165,7h158zM4080,3475v-165h-165h-165v158c0,87 3,162 7,165c3,4 78,7 165,7h158z"></path><path d="M625,2968c-3,-7 -4,-285 -3,-618l3,-605l1893,-3l1892,-2v620v620h-1890c-1503,0 -1892,-3 -1895,-12zM1280,2565v-165h-165h-165v165v165h165h165zM1700,2565v-165h-165h-165v165v165h165h165zM2520,2565v-165h-165h-165v165v165h165h165zM2930,2565v-165h-165h-165v165v165h165h165zM3670,2565v-165h-165h-165v165v165h165h165zM4080,2565v-165h-165h-165v165v165h165h165zM1280,2155v-165h-165h-165v165v165h165h165zM1700,2155v-165h-165h-165v165v165h165h165zM2520,2155v-165h-165h-165v165v165h165h165zM2930,2155v-165h-165h-165v165v165h165h165zM3670,2155v-165h-165h-165v165v165h165h165zM4080,2155v-165h-165h-165v165v165h165h165z"></path><path d="M620,825v-825h1895h1895v825v825h-1895h-1895zM1280,1235v-165l-162,2l-163,3l-3,163l-2,162h165h165zM1698,1238l-3,-163l-162,-3l-163,-2v165v165h165h165zM2520,1235v-165h-165h-165v165v165h165h165zM2930,1235v-165h-165h-165v165v165h165h165zM4080,945v-455l-367,2l-368,3l-3,453l-2,452h370h370zM1280,825v-165h-165h-165v165v165h165h165zM1700,825v-165h-165h-165v165v165h165h165zM2520,825v-165h-165h-165v165v165h165h165zM2930,825v-165h-165h-165v165v165h165h165zM4080,330v-60h80h80v-60v-60h-530h-530v60v60h80h80v60v60h370h370z"></path></g></g></g></svg>